<svg id="Layer_1" data-name="Layer 1" xmlns="http://www.w3.org/2000/svg" xmlns:xlink="http://www.w3.org/1999/xlink" viewBox="0 0 521.45 529.9"><defs><linearGradient id="linear-gradient" x1="331.05" y1="198.27" x2="337.88" y2="198.27" gradientUnits="userSpaceOnUse"><stop offset="0.01"/><stop offset="0.13" stop-opacity="0.69"/><stop offset="1" stop-opacity="0"/></linearGradient><linearGradient id="linear-gradient-2" x1="332.39" y1="194.55" x2="339.87" y2="194.55" xlink:href="#linear-gradient"/><linearGradient id="linear-gradient-3" x1="334.58" y1="190.38" x2="341.94" y2="190.38" xlink:href="#linear-gradient"/><linearGradient id="linear-gradient-4" x1="337.13" y1="186.49" x2="344.85" y2="186.49" xlink:href="#linear-gradient"/><linearGradient id="linear-gradient-5" x1="1027.85" y1="1150.24" x2="1034.68" y2="1150.24" gradientTransform="translate(211.71 -1354.01) rotate(36.97)" xlink:href="#linear-gradient"/><linearGradient id="linear-gradient-6" x1="1029.19" y1="1146.52" x2="1036.67" y2="1146.52" gradientTransform="translate(211.71 -1354.01) rotate(36.97)" xlink:href="#linear-gradient"/><linearGradient id="linear-gradient-7" x1="1031.38" y1="1142.35" x2="1038.74" y2="1142.35" gradientTransform="translate(211.71 -1354.01) rotate(36.97)" xlink:href="#linear-gradient"/><linearGradient id="linear-gradient-8" x1="1033.93" y1="1138.46" x2="1041.66" y2="1138.46" gradientTransform="translate(211.71 -1354.01) rotate(36.97)" xlink:href="#linear-gradient"/><linearGradient id="linear-gradient-9" x1="1365.58" y1="1328.43" x2="1372.41" y2="1328.43" gradientTransform="matrix(0.66, 0.75, -0.75, 0.66, 453.09, -1726.25)" xlink:href="#linear-gradient"/><linearGradient id="linear-gradient-10" x1="1366.92" y1="1324.71" x2="1374.4" y2="1324.71" gradientTransform="matrix(0.66, 0.75, -0.75, 0.66, 453.09, -1726.25)" xlink:href="#linear-gradient"/><linearGradient id="linear-gradient-11" x1="1369.11" y1="1320.55" x2="1376.47" y2="1320.55" gradientTransform="matrix(0.66, 0.75, -0.75, 0.66, 453.09, -1726.25)" xlink:href="#linear-gradient"/><linearGradient id="linear-gradient-12" x1="1371.66" y1="1316.66" x2="1379.39" y2="1316.66" gradientTransform="matrix(0.66, 0.75, -0.75, 0.66, 453.09, -1726.25)" xlink:href="#linear-gradient"/><linearGradient id="linear-gradient-13" x1="1374.36" y1="1313.66" x2="1381.19" y2="1313.66" gradientTransform="matrix(0.66, 0.75, -0.75, 0.66, 453.09, -1726.25)" xlink:href="#linear-gradient"/><linearGradient id="linear-gradient-14" x1="1375.7" y1="1309.94" x2="1383.18" y2="1309.94" gradientTransform="matrix(0.66, 0.75, -0.75, 0.66, 453.09, -1726.25)" xlink:href="#linear-gradient"/><linearGradient id="linear-gradient-15" x1="701.25" y1="781.63" x2="708.62" y2="781.63" gradientTransform="translate(26.29 -817.29) rotate(22.19)" xlink:href="#linear-gradient"/><linearGradient id="linear-gradient-16" x1="703.81" y1="777.74" x2="711.53" y2="777.74" gradientTransform="translate(26.29 -817.29) rotate(22.19)" xlink:href="#linear-gradient"/><linearGradient id="linear-gradient-17" x1="645.08" y1="701.6" x2="651.91" y2="701.6" gradientTransform="translate(12.58 -709.48) rotate(19.43)" xlink:href="#linear-gradient"/><linearGradient id="linear-gradient-18" x1="646.42" y1="697.88" x2="653.9" y2="697.88" gradientTransform="translate(12.58 -709.48) rotate(19.43)" xlink:href="#linear-gradient"/><linearGradient id="linear-gradient-19" x1="321.3" y1="-91.35" x2="328.67" y2="-91.35" gradientTransform="translate(83.93 292.15) rotate(-7.04)" xlink:href="#linear-gradient"/><linearGradient id="linear-gradient-20" x1="323.86" y1="-95.25" x2="331.58" y2="-95.25" gradientTransform="translate(83.93 292.15) rotate(-7.04)" xlink:href="#linear-gradient"/><linearGradient id="linear-gradient-21" x1="393.32" y1="205.98" x2="400.15" y2="205.98" gradientTransform="translate(12.64 -70.56) rotate(2.72)" xlink:href="#linear-gradient"/><linearGradient id="linear-gradient-22" x1="394.66" y1="202.26" x2="402.14" y2="202.26" gradientTransform="translate(12.64 -70.56) rotate(2.72)" xlink:href="#linear-gradient"/><linearGradient id="linear-gradient-23" x1="316.89" y1="-647.23" x2="324.25" y2="-647.23" gradientTransform="translate(368.99 868.25) rotate(-23.75)" xlink:href="#linear-gradient"/><linearGradient id="linear-gradient-24" x1="319.45" y1="-651.13" x2="327.17" y2="-651.13" gradientTransform="translate(368.99 868.25) rotate(-23.75)" xlink:href="#linear-gradient"/><linearGradient id="linear-gradient-25" x1="313.11" y1="-139.26" x2="319.94" y2="-139.26" gradientTransform="translate(109.16 318.42) rotate(-7.72)" xlink:href="#linear-gradient"/><linearGradient id="linear-gradient-26" x1="314.45" y1="-142.98" x2="321.93" y2="-142.98" gradientTransform="translate(109.16 318.42) rotate(-7.72)" xlink:href="#linear-gradient"/><linearGradient id="linear-gradient-27" x1="399" y1="-992.03" x2="406.37" y2="-992.03" gradientTransform="translate(629.69 1177.14) rotate(-34.19)" xlink:href="#linear-gradient"/><linearGradient id="linear-gradient-28" x1="401.56" y1="-995.92" x2="409.28" y2="-995.92" gradientTransform="translate(629.69 1177.14) rotate(-34.19)" xlink:href="#linear-gradient"/><linearGradient id="linear-gradient-29" x1="258.42" y1="194.72" x2="625.01" y2="285.95" xlink:href="#linear-gradient"/><linearGradient id="linear-gradient-30" x1="320.87" y1="156.84" x2="338.61" y2="281.85" xlink:href="#linear-gradient"/><linearGradient id="linear-gradient-31" x1="222.15" y1="293.75" x2="606.2" y2="247.57" xlink:href="#linear-gradient"/><linearGradient id="linear-gradient-32" x1="176.92" y1="258" x2="570.58" y2="355.97" xlink:href="#linear-gradient"/><linearGradient id="linear-gradient-33" x1="388.06" y1="123.14" x2="424.8" y2="123.14" xlink:href="#linear-gradient"/></defs><title>Bomb</title><path d="M89.15,193.12c2.39,6.63,7.79,11.64,12,17.33s7.19,13.35,4.07,19.67c-1.85,3.75-5.49,6.23-9,8.54l-28.84,19.1c17.9,11.21,25,34.63,22.68,55.62S77.76,353.63,68,372.33l-22,42c20.32-15.78,52.15-8.55,69.29,10.64s21.92,46.68,20.36,72.36a142.76,142.76,0,0,1,199.7,30.14,102.52,102.52,0,0,1,150.07-37.44,229.43,229.43,0,0,1,1.35-73.91c2.11-11.58,5.26-23.28,12.15-32.82s18.2-16.57,29.93-15.59c-25.85-19.55-38.48-53.3-37.63-85.7s13.76-63.48,31.1-90.85c-15.19-2-24.41-18.6-25.43-33.88s3.59-30.4,4-45.71A563.91,563.91,0,0,1,291.86,72.68C280.74,68.32,269.07,63,262.8,52.86c-3.2-5.18-6.15-15.86-13-17.6s-24.14,7.48-31.73,8.94c-14,2.68-29.29,4.11-39.74,15C168.9,69,167.12,83.1,165.65,96.06c-2.52,22.23-7.77,42.27-21.78,60.24A105.93,105.93,0,0,1,89.15,193.12Z" transform="translate(-30.85 -3.17)" fill="#00a87e" opacity="0.17"/><path d="M332.93,196.47c1.5-.69,3.37.12,4.9-.52a2.35,2.35,0,0,1-.15,1.33,4.88,4.88,0,0,1-2.11,2.92,4,4,0,0,1-2.54.31c-1.07-.18-2.12-.34-2-1.56A3.53,3.53,0,0,1,332.93,196.47Z" transform="translate(-30.85 -3.17)" fill="#00a87e"/><path d="M335.75,196.71a4.49,4.49,0,0,0,2.39-1,6.43,6.43,0,0,0,1.2-1.71,3.91,3.91,0,0,0,.52-1.39.34.34,0,0,0-.06-.28.39.39,0,0,0-.26-.06c-.49,0-1,0-1.46,0a11.9,11.9,0,0,0-2.92-.06,3.5,3.5,0,0,0-2.5,2.15,4.48,4.48,0,0,0-.26,1.31,1.6,1.6,0,0,0,.1.81c.26.56.83.42,1.32.38C334.47,196.84,335.11,196.81,335.75,196.71Z" transform="translate(-30.85 -3.17)" fill="#00a87e"/><path d="M334.63,191.56c-.08.4-.11.89.22,1.12a1,1,0,0,0,.52.14,9.79,9.79,0,0,0,3.66-.2,4.16,4.16,0,0,0,2.74-2.29c.81-2.05-1.51-2.08-2.84-2.36a3,3,0,0,0-3.32,1.08A6,6,0,0,0,334.63,191.56Z" transform="translate(-30.85 -3.17)" fill="#00a87e"/><path d="M340.83,184a3.6,3.6,0,0,0-2,.95,5.4,5.4,0,0,0-1.35,1.47,2.5,2.5,0,0,0-.28,1.94.8.8,0,0,0,.22.35.89.89,0,0,0,.4.12c.72.09,1.44.16,2.17.2a4.56,4.56,0,0,0,1.33-.07,4.62,4.62,0,0,0,1.2-.59c.67-.45,2.85-2.15,2.19-3.19-.24-.38-1.05-.33-1.43-.44A7,7,0,0,0,340.83,184Z" transform="translate(-30.85 -3.17)" fill="#00a87e"/><path d="M332.93,196.47c1.5-.69,3.37.12,4.9-.52a2.35,2.35,0,0,1-.15,1.33,4.88,4.88,0,0,1-2.11,2.92,4,4,0,0,1-2.54.31c-1.07-.18-2.12-.34-2-1.56A3.53,3.53,0,0,1,332.93,196.47Z" transform="translate(-30.85 -3.17)" fill="url(#linear-gradient)"/><path d="M335.75,196.71a4.49,4.49,0,0,0,2.39-1,6.43,6.43,0,0,0,1.2-1.71,3.91,3.91,0,0,0,.52-1.39.34.34,0,0,0-.06-.28.39.39,0,0,0-.26-.06c-.49,0-1,0-1.46,0a11.9,11.9,0,0,0-2.92-.06,3.5,3.5,0,0,0-2.5,2.15,4.48,4.48,0,0,0-.26,1.31,1.6,1.6,0,0,0,.1.81c.26.56.83.42,1.32.38C334.47,196.84,335.11,196.81,335.75,196.71Z" transform="translate(-30.85 -3.17)" fill="url(#linear-gradient-2)"/><path d="M334.63,191.56c-.08.4-.11.89.22,1.12a1,1,0,0,0,.52.14,9.79,9.79,0,0,0,3.66-.2,4.16,4.16,0,0,0,2.74-2.29c.81-2.05-1.51-2.08-2.84-2.36a3,3,0,0,0-3.32,1.08A6,6,0,0,0,334.63,191.56Z" transform="translate(-30.85 -3.17)" fill="url(#linear-gradient-3)"/><path d="M340.83,184a3.6,3.6,0,0,0-2,.95,5.4,5.4,0,0,0-1.35,1.47,2.5,2.5,0,0,0-.28,1.94.8.8,0,0,0,.22.35.89.89,0,0,0,.4.12c.72.09,1.44.16,2.17.2a4.56,4.56,0,0,0,1.33-.07,4.62,4.62,0,0,0,1.2-.59c.67-.45,2.85-2.15,2.19-3.19-.24-.38-1.05-.33-1.43-.44A7,7,0,0,0,340.83,184Z" transform="translate(-30.85 -3.17)" fill="url(#linear-gradient-4)"/><path d="M343.66,182.82c1.62.35,2.63,2.13,4.24,2.53a2.43,2.43,0,0,1-.93,1,4.86,4.86,0,0,1-3.44,1.06,4,4,0,0,1-2.21-1.28c-.75-.79-1.5-1.55-.63-2.43A3.51,3.51,0,0,1,343.66,182.82Z" transform="translate(-30.85 -3.17)" fill="#00a87e"/><path d="M345.77,184.71a4.54,4.54,0,0,0,2.52.64,6.23,6.23,0,0,0,2-.65,3.84,3.84,0,0,0,1.26-.79.35.35,0,0,0,.11-.27.37.37,0,0,0-.17-.2c-.4-.28-.8-.55-1.18-.85a11.63,11.63,0,0,0-2.3-1.8,3.46,3.46,0,0,0-3.29.21,4.63,4.63,0,0,0-1,.88,1.63,1.63,0,0,0-.41.72c-.13.6.41.83.83,1.09S345.21,184.4,345.77,184.71Z" transform="translate(-30.85 -3.17)" fill="#00a87e"/><path d="M348,179.93c-.3.26-.63.64-.5,1a1,1,0,0,0,.33.42,9.72,9.72,0,0,0,3.05,2,4.15,4.15,0,0,0,3.56-.18c1.88-1.15.05-2.56-.85-3.59a3,3,0,0,0-3.3-1.13A5.82,5.82,0,0,0,348,179.93Z" transform="translate(-30.85 -3.17)" fill="#00a87e"/><path d="M357.5,177.59a3.7,3.7,0,0,0-2.16-.44,5.25,5.25,0,0,0-2,.37A2.49,2.49,0,0,0,352,178.9a.7.7,0,0,0-.05.4.87.87,0,0,0,.25.35c.52.5,1.06,1,1.61,1.46a4.48,4.48,0,0,0,1.11.74,3.9,3.9,0,0,0,1.31.25c.81.05,3.58,0,3.67-1.23,0-.44-.64-.89-.87-1.21C358.52,179,358.25,178.09,357.5,177.59Z" transform="translate(-30.85 -3.17)" fill="#00a87e"/><path d="M343.66,182.82c1.62.35,2.63,2.13,4.24,2.53a2.43,2.43,0,0,1-.93,1,4.86,4.86,0,0,1-3.44,1.06,4,4,0,0,1-2.21-1.28c-.75-.79-1.5-1.55-.63-2.43A3.51,3.51,0,0,1,343.66,182.82Z" transform="translate(-30.85 -3.17)" fill="url(#linear-gradient-5)"/><path d="M345.77,184.71a4.54,4.54,0,0,0,2.52.64,6.23,6.23,0,0,0,2-.65,3.84,3.84,0,0,0,1.26-.79.35.35,0,0,0,.11-.27.37.37,0,0,0-.17-.2c-.4-.28-.8-.55-1.18-.85a11.63,11.63,0,0,0-2.3-1.8,3.46,3.46,0,0,0-3.29.21,4.63,4.63,0,0,0-1,.88,1.63,1.63,0,0,0-.41.72c-.13.6.41.83.83,1.09S345.21,184.4,345.77,184.71Z" transform="translate(-30.85 -3.17)" fill="url(#linear-gradient-6)"/><path d="M348,179.93c-.3.26-.63.64-.5,1a1,1,0,0,0,.33.42,9.72,9.72,0,0,0,3.05,2,4.15,4.15,0,0,0,3.56-.18c1.88-1.15.05-2.56-.85-3.59a3,3,0,0,0-3.3-1.13A5.82,5.82,0,0,0,348,179.93Z" transform="translate(-30.85 -3.17)" fill="url(#linear-gradient-7)"/><path d="M357.5,177.59a3.7,3.7,0,0,0-2.16-.44,5.25,5.25,0,0,0-2,.37A2.49,2.49,0,0,0,352,178.9a.7.7,0,0,0-.05.4.87.87,0,0,0,.25.35c.52.5,1.06,1,1.61,1.46a4.48,4.48,0,0,0,1.11.74,3.9,3.9,0,0,0,1.31.25c.81.05,3.58,0,3.67-1.23,0-.44-.64-.89-.87-1.21C358.52,179,358.25,178.09,357.5,177.59Z" transform="translate(-30.85 -3.17)" fill="url(#linear-gradient-8)"/><path d="M360.3,176.72c1.51.68,2.13,2.62,3.63,3.34a2.4,2.4,0,0,1-1.1.77,4.9,4.9,0,0,1-3.59.34,4,4,0,0,1-1.91-1.7c-.57-.92-1.14-1.82-.12-2.51A3.58,3.58,0,0,1,360.3,176.72Z" transform="translate(-30.85 -3.17)" fill="#00a87e"/><path d="M362,179a4.49,4.49,0,0,0,2.34,1.14,6.09,6.09,0,0,0,2.07-.24,3.84,3.84,0,0,0,1.39-.52.3.3,0,0,0,.16-.23.39.39,0,0,0-.12-.24c-.34-.35-.68-.7-1-1.07a12.32,12.32,0,0,0-1.89-2.23,3.48,3.48,0,0,0-3.27-.46,4.56,4.56,0,0,0-1.15.67,1.69,1.69,0,0,0-.55.61c-.24.56.24.9.6,1.24S361.49,178.59,362,179Z" transform="translate(-30.85 -3.17)" fill="#00a87e"/><path d="M365.11,174.76c-.35.2-.75.51-.7.91a1,1,0,0,0,.24.48,9.82,9.82,0,0,0,2.57,2.61,4.16,4.16,0,0,0,3.53.55c2.08-.74.56-2.51-.11-3.69a3,3,0,0,0-3-1.78A5.91,5.91,0,0,0,365.11,174.76Z" transform="translate(-30.85 -3.17)" fill="#00a87e"/><path d="M374.9,174.41a3.63,3.63,0,0,0-2-.87,5.39,5.39,0,0,0-2,0,2.51,2.51,0,0,0-1.64,1.07.69.69,0,0,0-.12.39.85.85,0,0,0,.17.39c.41.6.84,1.18,1.29,1.75a4.45,4.45,0,0,0,.93,1,4.16,4.16,0,0,0,1.23.51c.78.21,3.5.72,3.85-.46.12-.43-.45-1-.61-1.36A7.06,7.06,0,0,0,374.9,174.41Z" transform="translate(-30.85 -3.17)" fill="#00a87e"/><path d="M360.3,176.72c1.51.68,2.13,2.62,3.63,3.34a2.4,2.4,0,0,1-1.1.77,4.9,4.9,0,0,1-3.59.34,4,4,0,0,1-1.91-1.7c-.57-.92-1.14-1.82-.12-2.51A3.58,3.58,0,0,1,360.3,176.72Z" transform="translate(-30.85 -3.17)" fill="url(#linear-gradient-9)"/><path d="M362,179a4.49,4.49,0,0,0,2.34,1.14,6.09,6.09,0,0,0,2.07-.24,3.84,3.84,0,0,0,1.39-.52.3.3,0,0,0,.16-.23.39.39,0,0,0-.12-.24c-.34-.35-.68-.7-1-1.07a12.32,12.32,0,0,0-1.89-2.23,3.48,3.48,0,0,0-3.27-.46,4.56,4.56,0,0,0-1.15.67,1.69,1.69,0,0,0-.55.61c-.24.56.24.9.6,1.24S361.49,178.59,362,179Z" transform="translate(-30.85 -3.17)" fill="url(#linear-gradient-10)"/><path d="M365.11,174.76c-.35.2-.75.51-.7.91a1,1,0,0,0,.24.48,9.82,9.82,0,0,0,2.57,2.61,4.16,4.16,0,0,0,3.53.55c2.08-.74.56-2.51-.11-3.69a3,3,0,0,0-3-1.78A5.91,5.91,0,0,0,365.11,174.76Z" transform="translate(-30.85 -3.17)" fill="url(#linear-gradient-11)"/><path d="M374.9,174.41a3.63,3.63,0,0,0-2-.87,5.39,5.39,0,0,0-2,0,2.51,2.51,0,0,0-1.64,1.07.69.69,0,0,0-.12.39.85.85,0,0,0,.17.39c.41.6.84,1.18,1.29,1.75a4.45,4.45,0,0,0,.93,1,4.16,4.16,0,0,0,1.23.51c.78.21,3.5.72,3.85-.46.12-.43-.45-1-.61-1.36A7.06,7.06,0,0,0,374.9,174.41Z" transform="translate(-30.85 -3.17)" fill="url(#linear-gradient-12)"/><path d="M377.19,173.56c1.52.67,2.14,2.61,3.63,3.34a2.33,2.33,0,0,1-1.1.76,4.89,4.89,0,0,1-3.59.35,4.07,4.07,0,0,1-1.9-1.7c-.58-.93-1.15-1.83-.12-2.51A3.49,3.49,0,0,1,377.19,173.56Z" transform="translate(-30.85 -3.17)" fill="#00a87e"/><path d="M378.88,175.84a4.55,4.55,0,0,0,2.33,1.13,6.34,6.34,0,0,0,2.07-.23,3.84,3.84,0,0,0,1.39-.52.37.37,0,0,0,.17-.24.36.36,0,0,0-.13-.23c-.33-.36-.67-.7-1-1.08a12.32,12.32,0,0,0-1.89-2.23,3.48,3.48,0,0,0-3.27-.46,4.93,4.93,0,0,0-1.15.67,1.66,1.66,0,0,0-.54.61c-.25.57.24.91.59,1.25S378.38,175.42,378.88,175.84Z" transform="translate(-30.85 -3.17)" fill="#00a87e"/><path d="M380.09,172.38c-.22.34-.44.78-.22,1.12a1.14,1.14,0,0,0,.42.33,9.92,9.92,0,0,0,3.48,1.19,4.16,4.16,0,0,0,3.4-1.09c1.52-1.59-.62-2.49-1.75-3.25a3,3,0,0,0-3.48-.25A6,6,0,0,0,380.09,172.38Z" transform="translate(-30.85 -3.17)" fill="#00a87e"/><path d="M388.7,167.69a3.58,3.58,0,0,0-2.19.13,5.21,5.21,0,0,0-1.81.86,2.46,2.46,0,0,0-1,1.68.72.72,0,0,0,.07.41.84.84,0,0,0,.32.27c.64.35,1.28.68,1.94,1a3.33,3.33,0,0,0,2.59.35c.79-.16,3.45-.91,3.23-2.13-.08-.43-.84-.69-1.15-.94C390,168.76,389.56,168,388.7,167.69Z" transform="translate(-30.85 -3.17)" fill="#00a87e"/><path d="M377.19,173.56c1.52.67,2.14,2.61,3.63,3.34a2.33,2.33,0,0,1-1.1.76,4.89,4.89,0,0,1-3.59.35,4.07,4.07,0,0,1-1.9-1.7c-.58-.93-1.15-1.83-.12-2.51A3.49,3.49,0,0,1,377.19,173.56Z" transform="translate(-30.85 -3.17)" fill="url(#linear-gradient-13)"/><path d="M378.88,175.84a4.55,4.55,0,0,0,2.33,1.13,6.34,6.34,0,0,0,2.07-.23,3.84,3.84,0,0,0,1.39-.52.37.37,0,0,0,.17-.24.36.36,0,0,0-.13-.23c-.33-.36-.67-.7-1-1.08a12.32,12.32,0,0,0-1.89-2.23,3.48,3.48,0,0,0-3.27-.46,4.93,4.93,0,0,0-1.15.67,1.66,1.66,0,0,0-.54.61c-.25.57.24.91.59,1.25S378.38,175.42,378.88,175.84Z" transform="translate(-30.85 -3.17)" fill="url(#linear-gradient-14)"/><path d="M380.09,172.38c-.22.34-.44.78-.22,1.12a1.14,1.14,0,0,0,.42.33,9.92,9.92,0,0,0,3.48,1.19,4.16,4.16,0,0,0,3.4-1.09c1.52-1.59-.62-2.49-1.75-3.25a3,3,0,0,0-3.48-.25A6,6,0,0,0,380.09,172.38Z" transform="translate(-30.85 -3.17)" fill="url(#linear-gradient-15)"/><path d="M388.7,167.69a3.58,3.58,0,0,0-2.19.13,5.21,5.21,0,0,0-1.81.86,2.46,2.46,0,0,0-1,1.68.72.72,0,0,0,.07.41.84.84,0,0,0,.32.27c.64.35,1.28.68,1.94,1a3.33,3.33,0,0,0,2.59.35c.79-.16,3.45-.91,3.23-2.13-.08-.43-.84-.69-1.15-.94C390,168.76,389.56,168,388.7,167.69Z" transform="translate(-30.85 -3.17)" fill="url(#linear-gradient-16)"/><path d="M389.85,165.7c1.66-.15,3.15,1.24,4.81,1.14a2.43,2.43,0,0,1-.59,1.2,4.91,4.91,0,0,1-3,2.06,4,4,0,0,1-2.5-.56c-.95-.53-1.89-1-1.33-2.13A3.55,3.55,0,0,1,389.85,165.7Z" transform="translate(-30.85 -3.17)" fill="#00a87e"/><path d="M392.44,166.86a4.56,4.56,0,0,0,2.59-.14,6.27,6.27,0,0,0,1.69-1.22,3.71,3.71,0,0,0,1-1.13.33.33,0,0,0,0-.29c0-.08-.14-.11-.23-.14-.46-.15-.92-.28-1.38-.46a11.84,11.84,0,0,0-2.73-1,3.47,3.47,0,0,0-3.08,1.19,4.85,4.85,0,0,0-.68,1.14,1.76,1.76,0,0,0-.17.81c.06.61.65.67,1.12.79C391.19,166.55,391.8,166.74,392.44,166.86Z" transform="translate(-30.85 -3.17)" fill="#00a87e"/><path d="M391.81,163.26c0,.4,0,.9.35,1.08a1,1,0,0,0,.53.08,9.64,9.64,0,0,0,3.62-.66,4.14,4.14,0,0,0,2.44-2.6c.55-2.13-1.76-1.88-3.12-2a3,3,0,0,0-3.16,1.48A5.87,5.87,0,0,0,391.81,163.26Z" transform="translate(-30.85 -3.17)" fill="#00a87e"/><path d="M397,155a3.72,3.72,0,0,0-1.85,1.18,5.64,5.64,0,0,0-1.16,1.63,2.52,2.52,0,0,0,0,2,.66.66,0,0,0,.25.32.83.83,0,0,0,.42.07c.72,0,1.45,0,2.17-.07a4.39,4.39,0,0,0,1.31-.23,4.16,4.16,0,0,0,1.12-.73c.61-.53,2.57-2.49,1.79-3.44-.29-.34-1.08-.19-1.47-.26A7.2,7.2,0,0,0,397,155Z" transform="translate(-30.85 -3.17)" fill="#00a87e"/><path d="M389.85,165.7c1.66-.15,3.15,1.24,4.81,1.14a2.43,2.43,0,0,1-.59,1.2,4.91,4.91,0,0,1-3,2.06,4,4,0,0,1-2.5-.56c-.95-.53-1.89-1-1.33-2.13A3.55,3.55,0,0,1,389.85,165.7Z" transform="translate(-30.85 -3.17)" fill="url(#linear-gradient-17)"/><path d="M392.44,166.86a4.56,4.56,0,0,0,2.59-.14,6.27,6.27,0,0,0,1.69-1.22,3.71,3.71,0,0,0,1-1.13.33.33,0,0,0,0-.29c0-.08-.14-.11-.23-.14-.46-.15-.92-.28-1.38-.46a11.84,11.84,0,0,0-2.73-1,3.47,3.47,0,0,0-3.08,1.19,4.85,4.85,0,0,0-.68,1.14,1.76,1.76,0,0,0-.17.81c.06.61.65.67,1.12.79C391.19,166.55,391.8,166.74,392.44,166.86Z" transform="translate(-30.85 -3.17)" fill="url(#linear-gradient-18)"/><path d="M391.81,163.26c0,.4,0,.9.35,1.08a1,1,0,0,0,.53.08,9.64,9.64,0,0,0,3.62-.66,4.14,4.14,0,0,0,2.44-2.6c.55-2.13-1.76-1.88-3.12-2a3,3,0,0,0-3.16,1.48A5.87,5.87,0,0,0,391.81,163.26Z" transform="translate(-30.85 -3.17)" fill="url(#linear-gradient-19)"/><path d="M397,155a3.72,3.72,0,0,0-1.85,1.18,5.64,5.64,0,0,0-1.16,1.63,2.52,2.52,0,0,0,0,2,.66.66,0,0,0,.25.32.83.83,0,0,0,.42.07c.72,0,1.45,0,2.17-.07a4.39,4.39,0,0,0,1.31-.23,4.16,4.16,0,0,0,1.12-.73c.61-.53,2.57-2.49,1.79-3.44-.29-.34-1.08-.19-1.47-.26A7.2,7.2,0,0,0,397,155Z" transform="translate(-30.85 -3.17)" fill="url(#linear-gradient-20)"/><path d="M397.69,152.16c1.54-.62,3.37.28,4.93-.29a2.44,2.44,0,0,1-.22,1.32,4.87,4.87,0,0,1-2.25,2.82,4,4,0,0,1-2.54.19c-1.07-.23-2.11-.44-1.89-1.66A3.52,3.52,0,0,1,397.69,152.16Z" transform="translate(-30.85 -3.17)" fill="#00a87e"/><path d="M400.5,152.53a4.6,4.6,0,0,0,2.44-.88,6.38,6.38,0,0,0,1.27-1.65,3.71,3.71,0,0,0,.59-1.37.3.3,0,0,0-.05-.28.39.39,0,0,0-.26-.07c-.48,0-1,0-1.45-.05a12.51,12.51,0,0,0-2.92-.19,3.49,3.49,0,0,0-2.6,2,4.44,4.44,0,0,0-.32,1.29,1.74,1.74,0,0,0,.06.82c.23.57.82.46,1.31.44S399.86,152.6,400.5,152.53Z" transform="translate(-30.85 -3.17)" fill="#00a87e"/><path d="M398.86,149.26c.09.39.25.86.65.94a1.2,1.2,0,0,0,.53-.08,9.74,9.74,0,0,0,3.27-1.67,4.15,4.15,0,0,0,1.59-3.2c-.08-2.2-2.22-1.29-3.55-1a3.06,3.06,0,0,0-2.61,2.33A6,6,0,0,0,398.86,149.26Z" transform="translate(-30.85 -3.17)" fill="#00a87e"/><path d="M401.48,139.81a3.71,3.71,0,0,0-1.44,1.66,5.62,5.62,0,0,0-.64,1.9,2.51,2.51,0,0,0,.53,1.88.67.67,0,0,0,.34.23.77.77,0,0,0,.42,0c.69-.21,1.38-.44,2.06-.7a4,4,0,0,0,1.19-.6,3.86,3.86,0,0,0,.86-1c.43-.68,1.74-3.12.72-3.8-.37-.25-1.09.12-1.48.17A7.13,7.13,0,0,0,401.48,139.81Z" transform="translate(-30.85 -3.17)" fill="#00a87e"/><path d="M397.69,152.16c1.54-.62,3.37.28,4.93-.29a2.44,2.44,0,0,1-.22,1.32,4.87,4.87,0,0,1-2.25,2.82,4,4,0,0,1-2.54.19c-1.07-.23-2.11-.44-1.89-1.66A3.52,3.52,0,0,1,397.69,152.16Z" transform="translate(-30.85 -3.17)" fill="url(#linear-gradient-21)"/><path d="M400.5,152.53a4.6,4.6,0,0,0,2.44-.88,6.38,6.38,0,0,0,1.27-1.65,3.71,3.71,0,0,0,.59-1.37.3.3,0,0,0-.05-.28.39.39,0,0,0-.26-.07c-.48,0-1,0-1.45-.05a12.51,12.51,0,0,0-2.92-.19,3.49,3.49,0,0,0-2.6,2,4.44,4.44,0,0,0-.32,1.29,1.74,1.74,0,0,0,.06.82c.23.57.82.46,1.31.44S399.86,152.6,400.5,152.53Z" transform="translate(-30.85 -3.17)" fill="url(#linear-gradient-22)"/><path d="M398.86,149.26c.09.39.25.86.65.94a1.2,1.2,0,0,0,.53-.08,9.74,9.74,0,0,0,3.27-1.67,4.15,4.15,0,0,0,1.59-3.2c-.08-2.2-2.22-1.29-3.55-1a3.06,3.06,0,0,0-2.61,2.33A6,6,0,0,0,398.86,149.26Z" transform="translate(-30.85 -3.17)" fill="url(#linear-gradient-23)"/><path d="M401.48,139.81a3.71,3.71,0,0,0-1.44,1.66,5.62,5.62,0,0,0-.64,1.9,2.51,2.51,0,0,0,.53,1.88.67.67,0,0,0,.34.23.77.77,0,0,0,.42,0c.69-.21,1.38-.44,2.06-.7a4,4,0,0,0,1.19-.6,3.86,3.86,0,0,0,.86-1c.43-.68,1.74-3.12.72-3.8-.37-.25-1.09.12-1.48.17A7.13,7.13,0,0,0,401.48,139.81Z" transform="translate(-30.85 -3.17)" fill="url(#linear-gradient-24)"/><path d="M402.36,136.35c1.4-.89,3.36-.34,4.79-1.18a2.44,2.44,0,0,1,0,1.34,4.93,4.93,0,0,1-1.7,3.18,4,4,0,0,1-2.47.64c-1.09,0-2.16-.05-2.16-1.28A3.55,3.55,0,0,1,402.36,136.35Z" transform="translate(-30.85 -3.17)" fill="#00a87e"/><path d="M405.19,136.2a4.52,4.52,0,0,0,2.24-1.31,6.24,6.24,0,0,0,.95-1.85,3.88,3.88,0,0,0,.33-1.45.33.33,0,0,0-.1-.27.36.36,0,0,0-.27,0c-.47.08-.95.17-1.43.22a11.63,11.63,0,0,0-2.9.34,3.47,3.47,0,0,0-2.2,2.46,4.58,4.58,0,0,0-.08,1.33,1.7,1.7,0,0,0,.21.8c.33.51.88.29,1.36.19S404.57,136.39,405.19,136.2Z" transform="translate(-30.85 -3.17)" fill="#00a87e"/><path d="M403,133.28c.15.37.4.8.8.81a1,1,0,0,0,.51-.18,9.86,9.86,0,0,0,2.92-2.23,4.17,4.17,0,0,0,1-3.43c-.48-2.15-2.42-.87-3.68-.35a3,3,0,0,0-2.14,2.76A5.86,5.86,0,0,0,403,133.28Z" transform="translate(-30.85 -3.17)" fill="#00a87e"/><path d="M403.85,123.52a3.57,3.57,0,0,0-1.11,1.89,5.35,5.35,0,0,0-.29,2,2.5,2.5,0,0,0,.86,1.76.74.74,0,0,0,.37.17.9.9,0,0,0,.41-.13c.64-.33,1.28-.68,1.9-1.05a4.66,4.66,0,0,0,1.06-.81,3.92,3.92,0,0,0,.66-1.16c.31-.75,1.15-3.38,0-3.87-.41-.18-1.05.32-1.42.43A7,7,0,0,0,403.85,123.52Z" transform="translate(-30.85 -3.17)" fill="#00a87e"/><path d="M402.36,136.35c1.4-.89,3.36-.34,4.79-1.18a2.44,2.44,0,0,1,0,1.34,4.93,4.93,0,0,1-1.7,3.18,4,4,0,0,1-2.47.64c-1.09,0-2.16-.05-2.16-1.28A3.55,3.55,0,0,1,402.36,136.35Z" transform="translate(-30.85 -3.17)" fill="url(#linear-gradient-25)"/><path d="M405.19,136.2a4.52,4.52,0,0,0,2.24-1.31,6.24,6.24,0,0,0,.95-1.85,3.88,3.88,0,0,0,.33-1.45.33.33,0,0,0-.1-.27.36.36,0,0,0-.27,0c-.47.08-.95.17-1.43.22a11.63,11.63,0,0,0-2.9.34,3.47,3.47,0,0,0-2.2,2.46,4.58,4.58,0,0,0-.08,1.33,1.7,1.7,0,0,0,.21.8c.33.51.88.29,1.36.19S404.57,136.39,405.19,136.2Z" transform="translate(-30.85 -3.17)" fill="url(#linear-gradient-26)"/><path d="M403,133.28c.15.37.4.8.8.81a1,1,0,0,0,.51-.18,9.86,9.86,0,0,0,2.92-2.23,4.17,4.17,0,0,0,1-3.43c-.48-2.15-2.42-.87-3.68-.35a3,3,0,0,0-2.14,2.76A5.86,5.86,0,0,0,403,133.28Z" transform="translate(-30.85 -3.17)" fill="url(#linear-gradient-27)"/><path d="M403.85,123.52a3.57,3.57,0,0,0-1.11,1.89,5.35,5.35,0,0,0-.29,2,2.5,2.5,0,0,0,.86,1.76.74.74,0,0,0,.37.17.9.9,0,0,0,.41-.13c.64-.33,1.28-.68,1.9-1.05a4.66,4.66,0,0,0,1.06-.81,3.92,3.92,0,0,0,.66-1.16c.31-.75,1.15-3.38,0-3.87-.41-.18-1.05.32-1.42.43A7,7,0,0,0,403.85,123.52Z" transform="translate(-30.85 -3.17)" fill="url(#linear-gradient-28)"/><path d="M285.38,188.06v14.26l75.09,37.92,11.63-6.76s3.76-5.25-4.88-12.39-50.68-35.66-75.45-37.54C291.77,183.55,285.76,183.55,285.38,188.06Z" transform="translate(-30.85 -3.17)" fill="#00a87e"/><path d="M372.11,233.49l-3.92,2.27-7.72,4.48-75.08-37.91V188.06c.37-4.5,6.38-4.5,6.38-4.5,24.78,1.87,66.82,30.41,75.46,37.54S372.11,233.49,372.11,233.49Z" transform="translate(-30.85 -3.17)" fill="url(#linear-gradient-29)"/><path d="M372.11,233.49l-3.92,2.27,0,0c-23.37-29.85-62.23-42-65.61-41.67s-2,6.19-2,6.19l-15.2.24V188.06c.37-4.5,6.38-4.5,6.38-4.5,24.78,1.87,66.82,30.41,75.46,37.54S372.11,233.49,372.11,233.49Z" transform="translate(-30.85 -3.17)" fill="url(#linear-gradient-30)"/><circle cx="286.48" cy="286.01" r="86.75" transform="translate(-149.19 283.17) rotate(-45)" fill="#00a87e"/><path d="M373.24,286a86.71,86.71,0,1,1-54.09-80.38A86.77,86.77,0,0,1,373.24,286Z" transform="translate(-30.85 -3.17)" fill="url(#linear-gradient-31)"/><path d="M236.58,326.21c2.25,25.53,8.64,33,13.95,38.79a86.78,86.78,0,0,1,68.62-159.37c.58.45,2.64.73,3.21,1.2,0,0-15.24.34-25.71,5.54C269.84,225.65,230.77,260.4,236.58,326.21Z" transform="translate(-30.85 -3.17)" fill="url(#linear-gradient-32)"/><path d="M375.08,137.56c6.67-1.81,14.34-3.47,20.05.43,4.08,2.8,6,7.77,7.4,12.53,2.56-3.23,5.55-6.7,9.65-7.22,2.79-.35,5.54.78,8.13,1.89l14.36,6.12c-6-5.84-10.71-14.41-8.27-22.44,2.27-7.5,9.79-11.92,16.7-15.62a23.1,23.1,0,0,1-33.4-20.91c-.05,4.34-5.63,13-9.29,15.29-4.42,2.81-15.17,5.35-29.81-8.92C389.37,119,386.18,132.07,375.08,137.56Z" transform="translate(-30.85 -3.17)" fill="#00a87e" opacity="0.47" style="isolation:isolate"/><path d="M390.33,131.11c3.38-.92,7.27-1.76,10.16.22,2.07,1.42,3.05,3.94,3.75,6.35,1.3-1.64,2.82-3.4,4.89-3.66a8.13,8.13,0,0,1,4.12.95l7.28,3.11c-3.06-3-5.43-7.3-4.19-11.38,1.15-3.8,5-6,8.46-7.91a11.72,11.72,0,0,1-16.93-10.6c0,2.2-2.85,6.57-4.7,7.75-2.24,1.43-7.69,2.71-15.11-4.52C397.57,121.69,396,128.33,390.33,131.11Z" transform="translate(-30.85 -3.17)" fill="#00a87e"/><path d="M390.33,131.11c3.38-.92,7.27-1.76,10.16.22,2.07,1.42,3.05,3.94,3.75,6.35,1.3-1.64,2.82-3.4,4.89-3.66a8.13,8.13,0,0,1,4.12.95l7.28,3.11c-3.06-3-5.43-7.3-4.19-11.38,1.15-3.8,5-6,8.46-7.91a11.72,11.72,0,0,1-16.93-10.6c0,2.2-2.85,6.57-4.7,7.75-2.24,1.43-7.69,2.71-15.11-4.52C397.57,121.69,396,128.33,390.33,131.11Z" transform="translate(-30.85 -3.17)" fill="#00a87e" opacity="0.18" style="isolation:isolate"/><path d="M390.33,131.11c3.38-.92,7.27-1.76,10.16.22,2.07,1.42,3.05,3.94,3.75,6.35,1.3-1.64,2.82-3.4,4.89-3.66a8.13,8.13,0,0,1,4.12.95l7.28,3.11c-3.06-3-5.43-7.3-4.19-11.38,1.15-3.8,5-6,8.46-7.91a11.72,11.72,0,0,1-16.93-10.6c0,2.2-2.85,6.57-4.7,7.75-2.24,1.43-7.69,2.71-15.11-4.52C397.57,121.69,396,128.33,390.33,131.11Z" transform="translate(-30.85 -3.17)" fill="url(#linear-gradient-33)"/><g opacity="0.56"><polygon points="209.48 37.73 227.5 161.62 217.93 0 209.48 37.73" fill="#00a87e"/><polygon points="238.85 82.14 234.42 158.29 248.52 60.65 238.85 82.14" fill="#00a87e"/><polygon points="60.17 312.18 152.21 294.13 31.62 307.25 60.17 312.18" fill="#00a87e"/><polygon points="92.31 288.56 149.47 289.07 75.88 282.12 92.31 288.56" fill="#00a87e"/><polygon points="81.72 113.56 162.87 208.88 68.81 77.11 81.72 113.56" fill="#00a87e"/><polygon points="130.22 135.54 166.96 202.39 126.97 112.2 130.22 135.54" fill="#00a87e"/><polygon points="91.93 177.45 155.01 220.37 78.46 158.12 91.93 177.45" fill="#00a87e"/><polygon points="104.69 480.03 190.28 388.67 69.93 496.96 104.69 480.03" fill="#00a87e"/><polygon points="121.08 429.37 183.37 385.34 98.25 435.21 121.08 429.37" fill="#00a87e"/><polygon points="466.95 313.31 374.91 295.25 495.49 308.38 466.95 313.31" fill="#00a87e"/><polygon points="434.8 289.69 377.65 290.2 451.24 283.25 434.8 289.69" fill="#00a87e"/><polygon points="422.43 481.16 336.83 389.8 457.19 498.09 422.43 481.16" fill="#00a87e"/><polygon points="406.04 430.5 343.74 386.46 428.86 436.34 406.04 430.5" fill="#00a87e"/><polygon points="167.03 462.7 202.58 395.2 149.34 478.26 167.03 462.7" fill="#00a87e"/><polygon points="1.13 392.49 166.68 323.79 165.56 335.06 0 456.69 1.13 392.49" fill="#00a87e"/><polygon points="260.16 399.25 270.3 529.89 363.77 520.88 280.43 389.12 260.16 399.25" fill="#00a87e"/><polygon points="350.26 341.81 521.45 445.43 512.44 386.86 355.89 329.43 350.26 341.81" fill="#00a87e"/><polygon points="125.01 41.67 201.03 193.71 207.6 191.65 141.91 14.83 125.01 41.67" fill="#00a87e"/><polygon points="34.63 211.45 153.73 249.46 152.89 258.75 22.81 247.77 34.63 211.45" fill="#00a87e"/><polygon points="494.14 134.59 373.35 228.34 375.04 237.64 500.05 183.58 494.14 134.59" fill="#00a87e"/></g></svg>